@startuml
class Player{
    +balance : int
    +name : String
}
class Bank{
    'we can allow infinite balance in bank
    +balance : int
}
class Game {}

class UI {}

class Board {}
class Place{
    +position:int
}
class SpecialPlace{
    +action():void
}
class PlaceWithCard{}
class PlaceWithCardAndHouse{} 
class Card{}
class House{}
class Hotel{}
class Dice{
    +faceValue():int
}
class Chance{
    +color:String
}

Player --* Game
Bank -- Game
Board -- Game
Card -- PlaceWithCard
Place --* Board
Dice --* Game
House --* PlaceWithCardAndHouse
House --* Bank
Chance --* Board
Card --* Bank
Card --* Player
Chance --* Player
Hotel --|> House
UI -- Game
SpecialPlace --|> Place
PlaceWithCard --|> Place
PlaceWithCardAndHouse --|> PlaceWithCard
@enduml